<svg width="40px" height="41px" viewBox="0 -1 40 41" version="1.1" xmlns="http://www.w3.org/2000/svg"
     xmlns:xlink="http://www.w3.org/1999/xlink">
    <!-- Generator: Sketch 39.1 (31720) - http://www.bohemiancoding.com/sketch -->
    <desc>Created with Sketch.</desc>
    <defs>
        <polygon id="path-1"
                 points="39.9998667 4.73695157e-15 0 4.73695157e-15 0 39.9999333 39.9998667 39.9999333 39.9998667 0"></polygon>
    </defs>
    <g id="Page-1" stroke="none" stroke-width="1" fill="none" fill-rule="evenodd"
       transform="translate(20.000000, 20.000000) rotate(90.000000) translate(-20.000000, -20.000000) ">
        <mask id="mask-2" fill="white">
            <use xlink:href="#path-1"></use>
        </mask>
        <g id="Clip-2"></g>
        <path d="M32.4792,16.1706 L31.6718667,15.1092667 L19.9225333,24.0479333 L8.1732,15.1092667 L7.36586667,16.1706 L19.9225333,25.7239333 L32.4792,16.1706 Z M19.9998667,-6.66666667e-05 C8.95453333,-6.66666667e-05 -0.000133333333,8.9546 -0.000133333333,19.9999333 C-0.000133333333,31.0459333 8.95453333,39.9999333 19.9998667,39.9999333 C31.0458667,39.9999333 39.9998667,31.0459333 39.9998667,19.9999333 C39.9998667,8.9546 31.0458667,-6.66666667e-05 19.9998667,-6.66666667e-05 L19.9998667,-6.66666667e-05 Z M19.9998667,1.33326667 C30.2932,1.33326667 38.6665333,9.70726667 38.6665333,19.9999333 C38.6665333,30.2926 30.2932,38.6666 19.9998667,38.6666 C9.7072,38.6666 1.3332,30.2926 1.3332,19.9999333 C1.3332,9.70726667 9.7072,1.33326667 19.9998667,1.33326667 L19.9998667,1.33326667 Z"
              id="Fill-1" fill="#C775F1" mask="url(#mask-2)"></path>
    </g>
</svg>