<?xml version="1.0" encoding="utf-8"?>
<!-- Generator: Adobe Illustrator 19.2.1, SVG Export Plug-In . SVG Version: 6.00 Build 0)  -->
<svg version="1.1" id="Layer_3" xmlns="http://www.w3.org/2000/svg" xmlns:xlink="http://www.w3.org/1999/xlink" x="0px" y="0px"
	 viewBox="0 0 48 48" style="enable-background:new 0 0 48 48;" xml:space="preserve">
<style type="text/css">
	.st0{fill:#FFFFFF;}
</style>
<title>facebook_round</title>
<path class="st0" d="M24,2c12.1,0,22,9.9,22,22s-9.9,22-22,22S2,36.1,2,24S11.9,2,24,2 M24,0C10.7,0,0,10.7,0,24s10.7,24,24,24
	s24-10.7,24-24S37.3,0,24,0L24,0z"/>
<path class="st0" d="M28.8,25.2l0.6-4.4H25V18c0-1.3,0.4-2.1,2.2-2.1h2.3V12c-1.1-0.1-2.2-0.2-3.4-0.2c-3.3,0-5.6,2-5.6,5.8v3.2
	h-3.8v4.4h3.8v11.2H25V25.2H28.8L28.8,25.2z"/>
</svg>
